<svg xmlns="http://www.w3.org/2000/svg" viewBox="0 0 608.84 886.63"><g id="Capa_2" data-name="Capa 2"><g id="Capa_1-2" data-name="Capa 1"><path d="M38.62,423.41c4.14,1.73,6.8-1.68,12.06-3.5,7.71-2.68,8.67-7.57,5.76-10s-7.42.07-11-1.62h0l0,0c-3.64-1.55-4.78-6.56-8.52-7.14s-6.76,3.4-3.63,10.94C35.35,417.21,34.58,421.47,38.62,423.41Z" fill="#d9814e"/><path d="M47.13,430.87c-.87-4.12.59-7.92,3.25-8.48s5.51,2.34,6.38,6.46-.59,7.92-3.25,8.48S48,435,47.13,430.87Z" fill="#d9814e"/><path d="M27.39,422c3.66-2.1,5.53-5.7,4.18-8.06s-5.41-2.57-9.07-.48-5.53,5.7-4.18,8.06S23.73,424.1,27.39,422Z" fill="#d9814e"/><path d="M34.81,434.74c1.08-4.31,4.21-7.24,7-6.54S46,433,44.87,437.26s-4.21,7.25-7,6.55S33.72,439.05,34.81,434.74Z" fill="#d9814e"/><path d="M32.69,433.79c2.5-3.68,2.61-8,.24-9.57s-6.31,0-8.82,3.72-2.61,8-.24,9.58S30.18,437.46,32.69,433.79Z" fill="#d9814e"/><path d="M310.11,192.79c1.16-7.51-5.52-10.51-10.67-18.42-7.55-11.61-16-11.19-18.78-5.42s3.13,12.19,1.8,18.76v.12c-1.07,6.62-8.86,10.54-8.28,16.92s8.34,9.75,19.48,1.54C301.24,200.69,308.56,200.23,310.11,192.79Z" fill="#d9814e"/><path d="M318.93,175.75c-6.44,3.1-13.28,2.26-15.28-1.9s1.6-10,8-13.13,13.28-2.26,15.28,1.9S325.37,172.65,318.93,175.75Z" fill="#d9814e"/><path d="M312.38,211.85c-4.94-5.17-11.64-6.78-15-3.6s-2,9.95,2.9,15.12,11.64,6.78,15,3.6S317.31,217,312.38,211.85Z" fill="#d9814e"/><path d="M330.31,194.46c-7.53,0-13.63-4-13.61-8.85s6.14-8.77,13.67-8.75,13.64,4,13.62,8.85S337.85,194.49,330.31,194.46Z" fill="#d9814e"/><path d="M329.61,198.33c-7.07-2.62-14.16-1.06-15.86,3.5s2.66,10.37,9.73,13,14.16,1.06,15.86-3.49S336.68,201,329.61,198.33Z" fill="#d9814e"/><path d="M51.16,830.89c.66,12,11.93,14.4,22.43,24.91,15.41,15.42,28.29,12,30.69,2.22s-8.78-17.75-8.88-28.3v-.2c-.51-10.54,10.21-19.12,7.25-28.76s-16-12.3-30.51,4C62.24,815.83,51.13,818.92,51.16,830.89Z" fill="#d9814e"/><path d="M43.12,860c8.91-6.88,19.72-7.8,24.15-2.06s.81,16-8.09,22.85-19.72,7.8-24.16,2.05S34.21,866.89,43.12,860Z" fill="#d9814e"/><path d="M41.46,802.28c9.29,6.35,20.13,6.65,24.23.66s-.11-16-9.4-22.34-20.13-6.65-24.23-.67S32.17,795.92,41.46,802.28Z" fill="#d9814e"/><path d="M19.49,834.9c11.62-2.41,22.3,1.7,23.86,9.19S36.75,859.61,25.13,862s-22.29-1.7-23.85-9.19S7.88,837.32,19.49,834.9Z" fill="#d9814e"/><ellipse cx="21.35" cy="815.01" rx="13.85" ry="21.49" transform="matrix(0.15, -0.99, 0.99, 0.15, -787.94, 716.36)" fill="#d9814e"/><path d="M52.15,81.34c-1.54-5.45-7-5.41-12.94-9.18C30.5,66.63,24.9,69.53,24.8,74.3s5.9,7.29,7,12.16v.09c1.33,4.81-2.74,9.89-.37,14s8.67,4,13.68-5C48.58,89.44,53.4,86.87,52.15,81.34Z" fill="#d9814e"/><path d="M52.85,67.06c-3.4,4.1-8.3,5.64-11,3.45s-2-7.3,1.38-11.4,8.31-5.63,10.95-3.44S56.25,63,52.85,67.06Z" fill="#d9814e"/><path d="M59.58,93.56c-4.94-2-10-1-11.26,2.19S50,103.13,55,105.1s10,1,11.26-2.19S64.53,95.53,59.58,93.56Z" fill="#d9814e"/><path d="M66.36,76.22c-5.12,2.31-10.48,1.52-12-1.78S55.83,66.59,61,64.27s10.48-1.52,12,1.78S71.47,73.9,66.36,76.22Z" fill="#d9814e"/><path d="M67.08,79.06c-5.6.41-9.93,3.67-9.67,7.28s5,6.21,10.62,5.8S78,88.48,77.7,84.86,72.68,78.66,67.08,79.06Z" fill="#d9814e"/><path d="M113.34,536.62c.41-5.57-4.66-7.37-8.89-12.85-6.2-8-12.36-7.24-14-2.85s3,8.72,2.42,13.61v.09c-.39,4.9-5.86,8.23-5.06,12.86s6.67,6.64,14.34,0C107.32,542.92,112.64,542.15,113.34,536.62Z" fill="#d9814e"/><path d="M118.79,523.63c-4.53,2.65-9.58,2.43-11.29-.48s.58-7.43,5.1-10.08,9.58-2.43,11.29.48S123.31,521,118.79,523.63Z" fill="#d9814e"/><path d="M116.12,550.42c-3.91-3.49-8.91-4.27-11.16-1.75s-.9,7.4,3,10.89,8.92,4.27,11.17,1.75S120,553.91,116.12,550.42Z" fill="#d9814e"/><path d="M128.21,536.64c-5.51.43-10.2-2.11-10.48-5.66s4-6.78,9.49-7.21,10.21,2.11,10.48,5.67S133.73,536.22,128.21,536.64Z" fill="#d9814e"/><path d="M127.93,539.52c-5.32-1.5-10.42.06-11.39,3.49s2.55,7.43,7.88,8.93,10.42-.05,11.39-3.49S133.25,541,127.93,539.52Z" fill="#d9814e"/><path d="M577.81,698c6.93,1.74,10.33-4.26,18.19-8.38,11.53-6.06,11.87-14,6.71-17.12s-11.68,1.87-17.72.05l0,0h-.06c-6.1-1.58-9.1-9.22-15.12-9.24s-9.86,6.95-3.15,18.11C571.19,689,571,695.93,577.81,698Z" fill="#f2ba52"/><path d="M593,707.79c-2.35-6.3-1-12.63,3.11-14.14s9.25,2.37,11.6,8.67.94,12.63-3.12,14.14S595.34,714.09,593,707.79Z" fill="#f2ba52"/><path d="M559.77,698.49c5.27-4.17,7.36-10.31,4.68-13.71S555.3,682,550,686.18s-7.37,10.3-4.68,13.7S554.49,702.66,559.77,698.49Z" fill="#f2ba52"/><path d="M574.48,716.81c.68-7.06,4.92-12.42,9.47-12s7.69,6.52,7,13.58-4.93,12.42-9.47,12S573.79,723.87,574.48,716.81Z" fill="#f2ba52"/><path d="M570.91,715.81c3.08-6.39,2.24-13.17-1.88-15.16s-9.95,1.59-13,8-2.23,13.18,1.88,15.16S567.83,722.2,570.91,715.81Z" fill="#f2ba52"/><path d="M285.77,744.51c-8.52,9.85-1.54,20.28-1.26,36.45.41,23.71,13.06,30.78,22.35,24.93s6.53-20.54,14.43-28.87l.07-.08.07-.08c7.57-8.63,22.45-7.25,27.41-17S345.6,738.09,322,739.88C305.83,741.1,294.79,735.11,285.77,744.51Z" fill="#f2ba52"/><path d="M257.47,761.23c12.17,1.35,21.33,8.8,20.46,16.64S266.5,791,254.33,789.64,233,780.84,233.87,773,245.3,759.89,257.47,761.23Z" fill="#f2ba52"/><ellipse cx="313.8" cy="711.9" rx="14.29" ry="22.17" transform="translate(-137.05 77.86) rotate(-11.63)" fill="#f2ba52"/><ellipse cx="249.91" cy="736.47" rx="15.07" ry="23.38" transform="translate(-506.31 554.91) rotate(-57.76)" fill="#f2ba52"/><path d="M262.5,718.73c7.87,10.24,19.6,14.42,26.19,9.35s5.57-17.48-2.3-27.72-19.6-14.42-26.2-9.34S254.63,708.5,262.5,718.73Z" fill="#f2ba52"/><path d="M253.58,573.87c8.53,5.21,15.55-1.39,27.75-3.63,17.9-3.28,21.66-13.74,16.07-20s-16.37-2.37-23.66-7.3l-.07,0-.07-.05c-7.49-4.64-8.31-16.08-16.34-18.6s-16,5.18-11.72,22.86C248.49,559.11,245.34,568.22,253.58,573.87Z" fill="#f2ba52"/><path d="M269.79,593.19c-.5-9.38,4-17.25,10-17.58s11.36,7,11.87,16.39-4,17.25-10,17.58S270.3,602.57,269.79,593.19Z" fill="#f2ba52"/><path d="M229.32,567c8.77-3.37,14.11-10.69,11.94-16.34s-11-7.5-19.81-4.13-14.11,10.69-11.94,16.34S220.55,570.35,229.32,567Z" fill="#f2ba52"/><path d="M241.34,597.53c3.85-9.13,11.73-14.52,17.62-12s7.54,11.89,3.7,21S250.93,621,245,618.55,237.5,606.66,241.34,597.53Z" fill="#f2ba52"/><path d="M237,594.72c6.76-7.24,8.45-16.65,3.78-21s-13.93-2-20.69,5.22-8.45,16.65-3.79,21S230.24,602,237,594.72Z" fill="#f2ba52"/><path d="M461,222.68c5.79-.22,7.07-5.66,12.24-10.67,7.59-7.34,6-13.6,1.33-14.84s-8.67,4.11-13.78,4.07h-.1c-5.11.17-9.18-5.1-13.87-3.74s-6.09,7.66,1.68,14.81C453.78,217.19,455.18,222.6,461,222.68Z" fill="#f2ba52"/><path d="M475,226.81c-3.26-4.37-3.62-9.62-.8-11.72s7.74-.26,11,4.11,3.62,9.61.8,11.71S478.28,231.18,475,226.81Z" fill="#f2ba52"/><path d="M447,227.15c3.16-4.45,3.39-9.7.52-11.73s-7.75-.08-10.9,4.37-3.38,9.7-.52,11.73S443.89,231.6,447,227.15Z" fill="#f2ba52"/><path d="M462.67,238.05c-1.08-5.65,1-10.79,4.64-11.48s7.47,3.32,8.54,9-1,10.78-4.64,11.48S463.75,243.7,462.67,238.05Z" fill="#f2ba52"/><path d="M459.67,238.09c.93-5.68-1.27-10.76-4.92-11.37s-7.39,3.5-8.32,9.17,1.26,10.76,4.92,11.37S458.73,243.76,459.67,238.09Z" fill="#f2ba52"/><path d="M304.55,55.72c-11.47-4.17-18.27,5.41-32.33,11C251.6,75,249.63,88.45,257.84,94.63s20.16-1.12,30.08,3l.1,0,.09,0c10.08,3.74,13.83,17.23,24.05,18.31S330.1,106,320.65,85.84C314.22,72.14,315.77,60.48,304.55,55.72Z" fill="#f2ba52"/><path d="M280.47,36.52c2.88,11.1-.59,21.6-7.74,23.46s-15.29-5.64-18.17-16.74.59-21.61,7.75-23.46S277.6,25.42,280.47,36.52Z" fill="#f2ba52"/><path d="M335.24,58.09c-9.67,6.16-14.3,16.2-10.33,22.44s15,6.3,24.71.15S363.92,64.47,360,58.24,344.92,51.93,335.24,58.09Z" fill="#f2ba52"/><path d="M313.47,24.44C311.08,36.29,303,44.65,295.3,43.11s-11.9-12.4-9.51-24.25S296.32-1.36,304,.18,315.86,12.58,313.47,24.44Z" fill="#f2ba52"/><path d="M319.35,26.75c-6.34,10.3-6.09,22,.55,26.05s17.16-.95,23.5-11.25,6.09-22-.55-26S325.69,16.45,319.35,26.75Z" fill="#f2ba52"/><path d="M375.51,496.79c2.81,4.3,7.51,2.78,13.66,4.43,9,2.41,13.07-1.61,11.87-5.76s-7.07-4.7-9.37-8.6l0,0,0,0c-2.45-3.8-.31-9.28-3.48-12.22s-8.58-1.13-10.47,8C376.39,488.83,372.93,492.36,375.51,496.79Z" fill="#f2ba52"/><path d="M378.78,509.32c1.82-4.46,5.64-7.12,8.51-5.94s3.73,5.75,1.9,10.21-5.64,7.12-8.52,5.95S377,513.79,378.78,509.32Z" fill="#f2ba52"/><path d="M365.77,488.26c4.81.37,8.9-1.85,9.13-4.95s-3.47-5.91-8.28-6.27-8.9,1.85-9.13,4.95S361,487.9,365.77,488.26Z" fill="#f2ba52"/><path d="M364.62,505.08c3.79-3.39,8.64-4.16,10.82-1.71s.89,7.17-2.91,10.56-8.63,4.16-10.82,1.71S360.83,508.47,364.62,505.08Z" fill="#f2ba52"/><path d="M363.23,502.82c4.72-1.88,7.58-5.86,6.37-8.91s-6-4-10.74-2.13-7.59,5.86-6.38,8.91S358.5,504.69,363.23,502.82Z" fill="#f2ba52"/><path d="M155.15,400.21c6.66-3.15,5.43-10.14,9-18.56,5.2-12.35.27-18.89-5.86-18s-8.07,9.13-14.06,11.63l-.05,0-.06,0c-5.88,2.74-13.26-1.37-18.06,2.55s-3.28,12,9.35,16.45C144,397.39,148.34,403,155.15,400.21Z" fill="#f2ba52"/><path d="M173.6,398c-6-3.48-9-9.42-6.78-13.28s8.91-4.17,14.89-.69,9,9.42,6.78,13.27S179.59,401.5,173.6,398Z" fill="#f2ba52"/><path d="M141.11,412.38c1.46-6.77-.89-13-5.25-14s-9.08,3.78-10.54,10.54.89,13,5.25,14S139.65,419.14,141.11,412.38Z" fill="#f2ba52"/><path d="M164.79,417.31c-4.07-6.05-4.21-13.09-.31-15.72s10.37.16,14.44,6.21,4.21,13.09.31,15.72S168.86,423.37,164.79,417.31Z" fill="#f2ba52"/><path d="M161.3,418.85c-1.73-7.09-6.84-11.93-11.41-10.81s-6.87,7.77-5.14,14.85,6.84,11.93,11.41,10.82S163,425.94,161.3,418.85Z" fill="#f2ba52"/><path d="M551.19,550.57c-10.39-1.08-14.05,8.29-24.56,15.88-15.42,11.14-14.27,22.7-6.16,26.13s16.5-5.11,25.6-3.73h.17c9.15,1,15.06,11.44,23.78,10.22s12.81-12.09.8-26.83C562.63,562.21,561.51,552.21,551.19,550.57Z" fill="#f2ba52"/><path d="M527.22,539.62c4.69,8.62,4,18.06-1.58,21.09s-13.87-1.52-18.56-10.14-4-18.07,1.58-21.09S522.52,531,527.22,539.62Z" fill="#f2ba52"/><path d="M577.18,546.18c-6.76,7.12-8.52,16.43-3.93,20.78s13.79,2.12,20.55-5,8.52-16.42,3.93-20.78S583.94,539.06,577.18,546.18Z" fill="#f2ba52"/><path d="M552.12,522.74c.47,10.35-4.55,19-11.22,19.28s-12.45-7.83-12.93-18.18,4.55-19,11.22-19.27S551.65,512.4,552.12,522.74Z" fill="#f2ba52"/><path d="M557.48,523.45c-3.13,9.87-.5,19.5,5.86,21.52s14.06-4.35,17.18-14.22.51-19.51-5.85-21.52S560.61,513.58,557.48,523.45Z" fill="#f2ba52"/><path d="M154.42,699.58c-9.84,8.4-4.55,19.69-6.69,35.61-3.15,23.34,8.21,32.18,18.2,27.83s9.5-19.19,18.5-26.19l.08-.06.09-.07c8.72-7.35,23.12-3.77,29.46-12.63s.07-21.83-23.42-23.61C174.63,699.24,164.69,691.71,154.42,699.58Z" fill="#1b0140"/><path d="M124.13,711.77c11.75,3.14,19.63,11.83,17.6,19.4s-13.2,11.17-24.94,8-19.63-11.83-17.6-19.41S112.38,708.62,124.13,711.77Z" fill="#1b0140"/><ellipse cx="186.83" cy="671.76" rx="14.2" ry="22.02" transform="translate(-34.36 10.52) rotate(-2.95)" fill="#1b0140"/><path d="M130.22,675c9.69,8.4,13.16,20.28,7.74,26.53s-17.66,4.5-27.35-3.9-13.16-20.28-7.74-26.52S120.53,666.6,130.22,675Z" fill="#1b0140"/><path d="M135.43,670.79c6.19,11.23,17.08,17.09,24.32,13.1s8.09-16.34,1.89-27.57-17.08-17.09-24.32-13.1S129.23,659.56,135.43,670.79Z" fill="#1b0140"/><path d="M504.9,394.17c2.23-6.4-3.15-10.1-6.38-17.87-4.75-11.39-12.22-12.38-15.59-7.77s.78,11.18-1.45,16.72l0,.06,0,.05c-2,5.63-9.46,7.81-10,13.5s5.73,9.88,16.83,4.49C495.85,399.67,502.33,400.45,504.9,394.17Z" fill="#1b0140"/><path d="M515.38,380.66c-6.14,1.68-12-.17-13.09-4.13s3-8.53,9.16-10.21,12,.16,13.09,4.12S521.52,379,515.38,380.66Z" fill="#1b0140"/><path d="M503.81,411.24c-3.49-5.33-9.11-7.82-12.54-5.57s-3.39,8.4.1,13.72,9.11,7.82,12.54,5.57S507.3,416.57,503.81,411.24Z" fill="#1b0140"/><path d="M522.34,398.89c-6.61-1.23-11.31-5.69-10.51-9.95s6.8-6.7,13.4-5.46,11.31,5.69,10.51,9.95S528.94,400.13,522.34,398.89Z" fill="#1b0140"/><path d="M521.09,402.18c-5.76-3.44-12.24-3.22-14.46.5s.66,9.52,6.43,13,12.24,3.21,14.46-.51S526.86,405.62,521.09,402.18Z" fill="#1b0140"/><path d="M406.85,643.15c3.45,8.93,12.64,8,23.22,13.41,15.53,7.93,24.49,2.16,23.9-5.89s-11.07-11.33-13.75-19.34l0-.07,0-.08c-3-7.89,3-17.07-1.6-23.67s-15.22-5.4-22.23,10.57C411.57,629,403.87,634.05,406.85,643.15Z" fill="#1b0140"/><path d="M407.93,667.3c5.08-7.44,13.08-10.81,17.87-7.54s4.56,12-.52,19.39-13.07,10.8-17.87,7.53S402.85,674.73,407.93,667.3Z" fill="#1b0140"/><path d="M392.41,623.78c8.63,2.54,17,.09,18.6-5.48s-4-12.14-12.67-14.68-17-.09-18.6,5.48S383.77,621.24,392.41,623.78Z" fill="#1b0140"/><path d="M383.75,654c8.24-4.71,17.39-4.22,20.42,1.1s-1.18,13.43-9.43,18.14-17.38,4.22-20.42-1.1S375.51,658.74,383.75,654Z" fill="#1b0140"/><path d="M382.09,649.36c9.36-1.58,16.12-7.74,15.11-13.78s-9.42-9.65-18.79-8.08-16.12,7.74-15.11,13.78S372.72,650.93,382.09,649.36Z" fill="#1b0140"/><path d="M173.73,63.91c-2.39,3.79.52,7,1.44,12.48,1.35,8,6,9.81,8.88,7.34s1.18-7.32,3.44-10.56l0,0,0,0c2.13-3.33,7.27-3.62,8.46-7.21s-2.22-7.23-10.18-5.41C180.39,61.73,176.33,60.25,173.73,63.91Z" fill="#1b0140"/><path d="M165,71.05c4.22-.16,7.72,1.91,7.82,4.62s-3.22,5-7.43,5.22-7.72-1.91-7.82-4.62S160.74,71.22,165,71.05Z" fill="#1b0140"/><path d="M177,53.08c1.45,4,4.7,6.4,7.25,5.46s3.44-4.9,2-8.86-4.7-6.4-7.25-5.47S175.54,49.12,177,53.08Z" fill="#1b0140"/><path d="M163.2,58.26c4.07,1.79,6.44,5.36,5.28,8s-5.38,3.3-9.45,1.51-6.44-5.36-5.29-8S159.13,56.47,163.2,58.26Z" fill="#1b0140"/><path d="M164.49,56.33c3.2,3.08,7.41,3.91,9.4,1.84s1-6.24-2.2-9.32-7.41-3.91-9.4-1.84S161.29,53.25,164.49,56.33Z" fill="#1b0140"/><path d="M258.09,360.78c-13.22-3.44-19.8,8-34.88,15.74-22.12,11.4-22.9,26.58-13.08,32.6s22.36-3.39,33.86.18l.11,0,.11,0c11.64,3.11,17.25,17.75,28.76,17.87s18.94-13.14,6.28-34.56C270.61,378.07,271.12,364.9,258.09,360.78Z" fill="#1b0140"/><path d="M229.21,341.91c4.39,12.08,1.63,24.16-6.15,27s-17.65-4.68-22-16.75-1.62-24.16,6.16-27S224.83,329.84,229.21,341.91Z" fill="#1b0140"/><path d="M292.58,360.17c-10.14,7.9-14.23,19.59-9.15,26.13s17.43,5.43,27.57-2.46,14.23-19.58,9.15-26.12S302.72,352.28,292.58,360.17Z" fill="#1b0140"/><path d="M264.73,325c-1.41,13.47-9.59,23.66-18.28,22.75s-14.58-12.57-13.17-26.05,9.59-23.66,18.28-22.75S266.14,311.47,264.73,325Z" fill="#1b0140"/><path d="M271.54,326.91c-6,12.16-4.47,25.14,3.37,29s19-2.88,25-15,4.47-25.14-3.37-29S277.51,314.75,271.54,326.91Z" fill="#1b0140"/><path d="M169.21,221.21c-.63,4.64,3.53,6.42,6.79,11.23,4.79,7.07,10,6.71,11.64,3.13s-2.07-7.48-1.33-11.54V224c.58-4.09,5.34-6.6,4.91-10.53s-5.25-5.91-12-.72C174.59,216.24,170.09,216.6,169.21,221.21Z" fill="#1b0140"/><path d="M164,231.82c3.93-2,8.16-1.55,9.44,1s-.87,6.2-4.8,8.19-8.16,1.54-9.44-1S160,233.8,164,231.82Z" fill="#1b0140"/><ellipse cx="171.25" cy="205.87" rx="5.14" ry="7.98" transform="translate(-95.3 180.19) rotate(-44.74)" fill="#1b0140"/><path d="M156.74,220.41c4.65-.07,8.45,2.3,8.5,5.3s-3.69,5.48-8.33,5.55-8.45-2.3-8.5-5.3S152.09,220.48,156.74,220.41Z" fill="#1b0140"/><path d="M157.13,218c4.39,1.53,8.74.49,9.73-2.34s-1.76-6.36-6.14-7.9-8.74-.49-9.73,2.33S152.75,216.48,157.13,218Z" fill="#1b0140"/><path d="M50.34,256.68c2.78-2.56,1.11-5.81,1.55-10.48.66-6.86-2.76-9.32-5.63-7.93s-2.56,5.72-5.11,7.86l0,0,0,0c-2.47,2.24-6.72,1.36-8.47,4s.23,6.38,7.11,6.64C44.44,257,47.43,259.1,50.34,256.68Z" fill="#1b0140"/><path d="M59.06,252.78c-3.47-.79-5.87-3.24-5.37-5.48s3.73-3.41,7.2-2.62,5.88,3.23,5.37,5.47S62.53,253.56,59.06,252.78Z" fill="#1b0140"/><path d="M45.32,264.81c-.32-3.55-2.43-6.25-4.72-6s-3.87,3.24-3.55,6.79,2.43,6.25,4.71,6S45.64,268.35,45.32,264.81Z" fill="#1b0140"/><path d="M57.7,263.59c-2.93-2.34-4.08-5.77-2.57-7.66s5.11-1.52,8,.83,4.08,5.77,2.57,7.66S60.62,265.94,57.7,263.59Z" fill="#1b0140"/><path d="M56.22,264.88c-1.94-3.21-5.19-4.8-7.26-3.55s-2.18,4.87-.24,8.08,5.19,4.8,7.26,3.55S58.16,268.1,56.22,264.88Z" fill="#1b0140"/><path d="M450.65,55c2.2-7.15-3.89-11-7.77-19.46-5.7-12.38-14-13.17-17.52-7.95s1.32,12.31-.91,18.52l0,.06,0,.06c-2,6.29-10.13,9-10.47,15.3s6.73,10.68,18.75,4.27C440.89,61.47,448.07,62.06,450.65,55Z" fill="#1b0140"/><path d="M461.66,39.7c-6.71,2.11-13.25.31-14.61-4s3-9.54,9.7-11.65,13.25-.3,14.61,4S468.37,37.6,461.66,39.7Z" fill="#1b0140"/><path d="M450.14,73.92c-4.07-5.74-10.37-8.26-14.07-5.64s-3.39,9.4.68,15.14,10.37,8.26,14.06,5.63S454.21,79.65,450.14,73.92Z" fill="#1b0140"/><path d="M470.08,59.54c-7.33-1.1-12.71-5.82-12-10.55s7.23-7.67,14.56-6.58,12.71,5.83,12,10.56S477.42,60.64,470.08,59.54Z" fill="#1b0140"/><path d="M468.84,63.21c-6.5-3.56-13.64-3.05-15.93,1.14S454,74.84,460.53,78.4s13.64,3,15.93-1.14S475.35,66.78,468.84,63.21Z" fill="#1b0140"/><path d="M377.38,336.57c-10.47,0-13.13,9.75-22.81,18.43-14.19,12.72-11.83,24.13-3.38,26.69s15.91-6.83,25.13-6.42h.17c9.23.05,16.22,9.82,24.78,7.69s11.5-13.41-2-26.84C390,347,387.84,337.11,377.38,336.57Z" fill="#f2c894"/><path d="M352.33,328.18c5.58,8.1,5.88,17.59.65,21.19s-14,0-19.57-8.15-5.88-17.59-.66-21.19S346.74,320.08,352.33,328.18Z" fill="#f2c894"/><path d="M402.83,329.45c-6,7.81-6.76,17.28-1.73,21.14s14,.65,20-7.16,6.76-17.27,1.73-21.13S408.82,321.64,402.83,329.45Z" fill="#f2c894"/><path d="M375.37,308.73c1.56,10.26-2.53,19.4-9.15,20.4s-13.24-6.49-14.8-16.75S354,293,360.57,292,373.81,298.47,375.37,308.73Z" fill="#f2c894"/><path d="M380.79,308.87c-2.07,10.17,1.56,19.5,8.11,20.84s13.56-5.82,15.63-16-1.55-19.5-8.11-20.84S382.87,298.7,380.79,308.87Z" fill="#f2c894"/><path d="M38.87,643.83C31.11,641.58,27,648.22,18,652.57,4.72,659,4,667.92,9.72,671.64s13.28-1.64,20,.66l.07,0,.06,0c6.83,2,9.91,10.78,16.72,11S58,675.91,50.86,663C46,654.26,46.51,646.48,38.87,643.83Z" fill="#f2c894"/><path d="M22.1,632.2c2.4,7.22.57,14.32-4.08,15.86S7.66,645,5.26,637.8s-.57-14.31,4.08-15.86S19.71,625,22.1,632.2Z" fill="#f2c894"/><path d="M59.28,644c-6.13,4.5-8.74,11.35-5.84,15.3s10.22,3.5,16.35-1S78.52,647,75.62,643,65.4,639.54,59.28,644Z" fill="#f2c894"/><path d="M43.38,622.75c-1.05,7.94-6.06,13.84-11.18,13.16s-8.42-7.68-7.37-15.62S30.9,606.45,36,607.13,44.44,614.8,43.38,622.75Z" fill="#f2c894"/><path d="M47.38,624c-3.74,7.09-3.05,14.79,1.52,17.2s11.3-1.39,15-8.49,3-14.79-1.53-17.2S51.11,616.93,47.38,624Z" fill="#f2c894"/><path d="M566.44,122.92c1.19-3.35-1.61-5.31-3.27-9.39-2.44-6-6.35-6.53-8.13-4.13s.36,5.86-.83,8.75v.06c-1.07,2.94-5,4.05-5.28,7s3,5.2,8.8,2.42C561.68,125.76,565.07,126.19,566.44,122.92Z" fill="#f2c894"/><path d="M572,115.88c-3.22.85-6.28-.14-6.83-2.21s1.61-4.46,4.83-5.32,6.29.13,6.84,2.21S575.21,115,572,115.88Z" fill="#f2c894"/><path d="M565.81,131.85c-1.81-2.8-4.74-4.13-6.55-3s-1.81,4.38,0,7.18,4.74,4.13,6.55,3S567.61,134.65,565.81,131.85Z" fill="#f2c894"/><path d="M575.56,125.46c-3.46-.68-5.9-3-5.47-5.26s3.59-3.48,7-2.81,5.9,3,5.47,5.26S579,126.13,575.56,125.46Z" fill="#f2c894"/><path d="M574.89,127.17c-3-1.82-6.4-1.73-7.57.21s.31,5,3.31,6.81,6.4,1.74,7.58-.2S577.9,129,574.89,127.17Z" fill="#f2c894"/><path d="M447,778.32c3.09,1.65,5.41-.79,9.64-1.81,6.2-1.51,7.31-5.24,5.23-7.33s-5.78-.51-8.43-2.09l0,0h0c-2.71-1.48-3.22-5.46-6.08-6.19s-5.51,2.13-3.65,8.23C445,773.26,444,776.5,447,778.32Z" fill="#f2c894"/><path d="M453.09,784.76c-.36-3.27,1.06-6.11,3.17-6.35s4.11,2.23,4.47,5.51-1.05,6.11-3.16,6.34S453.45,788,453.09,784.76Z" fill="#f2c894"/><path d="M438.41,776.38c3-1.35,4.73-4,3.86-6s-4-2.41-7-1-4.73,4-3.86,6S435.41,777.74,438.41,776.38Z" fill="#f2c894"/><path d="M443.22,786.84c1.17-3.27,3.82-5.31,5.93-4.56s2.87,4,1.71,7.28-3.82,5.31-5.93,4.56S442.05,790.11,443.22,786.84Z" fill="#f2c894"/><path d="M441.64,785.94c2.23-2.67,2.64-6,.92-7.42s-4.92-.44-7.14,2.23-2.63,6-.91,7.42S439.42,788.61,441.64,785.94Z" fill="#f2c894"/></g></g></svg>