<svg xmlns="http://www.w3.org/2000/svg" viewBox="0 0 949.44 1041.57"><g id="Capa_2" data-name="Capa 2"><g id="Nuevo_logo_blanco_sin_letras" data-name="Nuevo logo blanco sin letras"><path d="M949.44,518.8q0,243.83-152.38,382.78Q683.72,1005,507.51,1031.42q-60.72,9.18-128.91,9.15H79.8q-43.12,0-61-18.57T1,961.77v-883q0-43.1,18.59-60.94T79.8,0H369.66Q655.1,0,802.28,131.55T949.44,518.8Z" fill="#1d0a3f"/><path d="M802.3,362.92c-8.76,27.43-15.18,56.27-27.91,81.53-11.2,22.25-26.78,44.47-45.61,59.55-47.47,38-102.22,45.2-159.66,29-28-7.9-53.54-5.47-77.14,17.82l52.08-10.54c-1.27,12.83-2.83,20.92-2.74,29,.5,53-2.6,106.44,3.26,158.77,5.47,48.72,22.19,95.91,30.71,144.42,3.33,18.94,2.72,41.92-4.57,59.07-11.11,26.05-35.5,63.25-64.21,100.9q-60.72,9.18-128.91,9.15H78.8q-43.12,0-61-18.57T0,962.77V590.7c25.2-12.6,50.19-25.7,72.9-42.12a544.76,544.76,0,0,0,93.44-86.1c42.74-50,81-104.23,117.3-151.62C318.43,361,352.76,410.54,387.08,460c13.89,20.09,32.75,24.79,51.07,10.77,15-11.43,32.45-26.55,37.44-43.72,10.4-35.7,13.27-73.83,19.24-111-7.86,12.73-9.44,26.59-12.62,40.07-5.74,24.39-10.15,49.54-19.32,72.52-10.77,27-43.93,42.12-57.49,28-51-53.11-97.12-110.35-111.61-187.09-2.6-13.76,1.23-34.89,10.1-43.85,19.9-20,42.75-40.67,68.12-50.13,71.77-26.86,142.69-19.9,212,15.82,25.08,12.94,43.19,26.74,49.3,56.7,5.9,29,23.79,46.68,52.62,52.32,31.42,6.13,62.52,14.07,93.78,21.22C805.89,327.7,810.8,336.23,802.3,362.92Z" fill="#fff"/></g></g></svg>