<svg xmlns="http://www.w3.org/2000/svg" viewBox="0 0 1033.75 706.3"><g id="Capa_2" data-name="Capa 2"><g id="Nuevo_logo" data-name="Nuevo logo"><path d="M742,249.52q0,117.27-73.29,184.1-54.51,49.72-139.26,62.45a415.37,415.37,0,0,1-62,4.4H323.72q-20.75,0-29.32-8.93t-8.58-29V37.89q0-20.73,8.94-29.31t29-8.58H463.13Q600.41,0,671.2,63.27T742,249.52Z" fill="#1d0a3f"/><path d="M704,572.5a3.05,3.05,0,0,1-.08.54c0,.06,0,.13,0,.15a4.47,4.47,0,0,1-.14.64,2.75,2.75,0,0,1-.08.3l-.07.22,0,.15a1.89,1.89,0,0,1-.09.21c0,.06-.08.19-.12.29a4.14,4.14,0,0,1-.3.56,3,3,0,0,1-.31.49.63.63,0,0,0-.11.12,4,4,0,0,1-.88.85l-.12.07-.07,0-.13.07-.07,0a7.85,7.85,0,0,1-.8.28c-.11,0-.53.06-.65.06a4.28,4.28,0,0,1-1-.2l-.31-.15a2.87,2.87,0,0,1-.56-.32l-.13-.09a2.3,2.3,0,0,1-.41-.35,9.59,9.59,0,0,1-.77-.94,8.11,8.11,0,0,1-.6-1.15,9.17,9.17,0,0,1-.43-1.35c0-.07-.05-.27-.08-.44a8.68,8.68,0,0,1-.06-2.59c0-.1,0-.28.06-.39a2.35,2.35,0,0,1,0-.29,1.94,1.94,0,0,1,.05-.2,4.66,4.66,0,0,1,.18-.61,5.9,5.9,0,0,1,1.08-2l.25-.28c.2-.19.26-.24.28-.24s0,0,0,0a2.47,2.47,0,0,1,.58-.39,3,3,0,0,1,1.26-.36,1.84,1.84,0,0,1,.73,0l.33.07.16,0,0,0a3.48,3.48,0,0,1,.58.27s0,0,0,0a4.35,4.35,0,0,1,.74.55,6.26,6.26,0,0,1,.65.74.67.67,0,0,0,.11.14.07.07,0,0,1,0,0,.41.41,0,0,0,.05.11,8,8,0,0,1,.61,1.21,9.93,9.93,0,0,1,.55,2.25C704,571,704,572.23,704,572.5Z" fill="#1d0a3f"/><path d="M713.5,573.18c0,.12-.09.37-.13.56a2,2,0,0,1-.1.37,1.56,1.56,0,0,0-.06.21c-.05.15-.14.4-.22.59,0,0,0,.12-.08.21a6.25,6.25,0,0,1-.56,1.1c-.05.08-.14.22-.2.3l-.23.34-.27.37a7.36,7.36,0,0,1-.94,1l-.16.16a.09.09,0,0,1,0,0,.16.16,0,0,0-.09,0,5.44,5.44,0,0,1-.59.4,3.93,3.93,0,0,1-2.44.53l-.31-.05a2.8,2.8,0,0,1-.79-.33l-.11-.07a5.18,5.18,0,0,1-.78-.73l0-.07a1.93,1.93,0,0,1-.23-.35,1.09,1.09,0,0,0-.1-.17.5.5,0,0,1-.07-.13,1.54,1.54,0,0,0-.1-.24,5.65,5.65,0,0,1-.36-1.39c0-.08,0-.21,0-.3s0-1.07,0-1.21,0-.17,0-.28,0-.26,0-.33a1.29,1.29,0,0,0,0-.25,1.9,1.9,0,0,1,.12-.49.78.78,0,0,0,.05-.18,8.87,8.87,0,0,1,.72-1.83,2,2,0,0,0,.11-.21c.07-.13.15-.26.28-.47l.13-.2a.26.26,0,0,1,0-.09l.29-.36a8,8,0,0,1,1-1.06l.18-.15a.83.83,0,0,1,.16-.13l.18-.13a5.34,5.34,0,0,1,1.31-.65,3,3,0,0,1,.83-.18,2.46,2.46,0,0,1,.46,0,2.81,2.81,0,0,1,.65.11l.08,0a.24.24,0,0,1,.12,0l.27.11a.42.42,0,0,1,.13.07l.11.06s0,0,.06,0l.15.1a5.23,5.23,0,0,1,.8.82,5.09,5.09,0,0,1,.7,1.73l0,.21a3.62,3.62,0,0,1,.07.93A7.21,7.21,0,0,1,713.5,573.18Z" fill="#1d0a3f"/><path d="M695.8,579.46a11.26,11.26,0,0,1-.25,1.23,2.65,2.65,0,0,0-.1.29c0,.14-.09.27-.09.29l-.06.14-.1.21a.47.47,0,0,0-.05.14l0,0L695,582a1.47,1.47,0,0,1-.19.34,1.28,1.28,0,0,0-.15.23l0,0-.13.17a5.05,5.05,0,0,1-.56.64c-.06,0-.12.1-.12.13s0,0,0,0a.72.72,0,0,0-.21.13,3.81,3.81,0,0,1-1.37.62,3.56,3.56,0,0,1-1.27,0l-.24-.07-.21-.08-.16-.06-.14-.07a.45.45,0,0,0-.15-.07s0,0,0,0,0,0,0,0a.41.41,0,0,1-.12-.07l-.1-.06s0,0-.09-.06l-.28-.23a5.8,5.8,0,0,1-.85-.92l-.17-.21a.15.15,0,0,1,0-.08,1.05,1.05,0,0,0-.13-.21,5.69,5.69,0,0,1-.42-.84,2.57,2.57,0,0,1-.22-.59c0-.05,0-.1,0-.1s0,0,0,0a3,3,0,0,0-.09-.34,8.48,8.48,0,0,1-.32-2.42,7.27,7.27,0,0,1,0-1s0-.14,0-.22a12.18,12.18,0,0,1,.26-1.23,7.66,7.66,0,0,1,.56-1.33.7.7,0,0,0,.08-.16l.06-.1s.05-.08,0-.08,0-.05.08-.12a.37.37,0,0,0,.1-.15l.11-.13a.52.52,0,0,0,.12-.13.35.35,0,0,1,.1-.13,1.37,1.37,0,0,0,.17-.19s.07-.08.09-.08l.11-.1.14-.12.3-.2.28-.19.09,0a3.3,3.3,0,0,1,.92-.29l0,0a7.91,7.91,0,0,1,1,0,3.37,3.37,0,0,1,1,.33,1.75,1.75,0,0,1,.33.18s0,0,0,0l0,0,.15.13a4.34,4.34,0,0,1,.86.81,1.74,1.74,0,0,0,.16.18l.24.34a1.2,1.2,0,0,1,.15.24s0,0,0,.06,0,0,0,0,0,0,0,.07a4.92,4.92,0,0,1,.29.6s.08.17.12.25a9,9,0,0,1,.57,4.51Z" fill="#1d0a3f"/><path d="M719,581.38c0,.06,0,.18,0,.28a12.08,12.08,0,0,1-.46,2.22.35.35,0,0,0,0,.13s0,.08,0,.08,0,0,0,.06a.17.17,0,0,1,0,.09.08.08,0,0,0,0,.07,7.1,7.1,0,0,1-.47,1.11.11.11,0,0,0,0,.07,1.21,1.21,0,0,1-.1.19c0,.09-.09.16-.07.16s0,0,0,0a.35.35,0,0,0-.07.09,3.68,3.68,0,0,1-.25.43,1.28,1.28,0,0,0-.12.23.07.07,0,0,1,0,.06.66.66,0,0,0-.18.23.34.34,0,0,1-.08.1l-.16.19a7.09,7.09,0,0,1-.58.67l-.16.19,0,0a5.89,5.89,0,0,0-.61.5s0,0-.05,0a.55.55,0,0,0-.16.09l-.3.17-.16.09-.18.09a3.37,3.37,0,0,1-1.48.35,1.92,1.92,0,0,1-.84-.13l-.16-.06a3,3,0,0,1-.61-.35,3.77,3.77,0,0,1-1.23-1.86c-.06-.19-.11-.37-.13-.41a1.73,1.73,0,0,1,0-.2.62.62,0,0,0,0-.16s0-.11,0-.23a9.25,9.25,0,0,1,0-2.3,10,10,0,0,1,.29-1.47,4.19,4.19,0,0,1,.21-.67.7.7,0,0,0,.06-.19s0-.1,0-.1,0,0,0,0a4.72,4.72,0,0,1,.3-.7c.08-.17.15-.33.15-.34a.42.42,0,0,1,.07-.13l.17-.31a1.81,1.81,0,0,1,.14-.25,3.67,3.67,0,0,0,.34-.54,0,0,0,0,1,0,0,1.64,1.64,0,0,0,.24-.3.85.85,0,0,1,.15-.18.47.47,0,0,0,.11-.18,0,0,0,0,1,0,0s.09-.07.17-.16a6.71,6.71,0,0,1,.52-.51l.19-.16a1.07,1.07,0,0,1,.21-.15,0,0,0,0,0,0,0s0,0,0,0a1.48,1.48,0,0,0,.25-.15,4.67,4.67,0,0,1,1.43-.63l.28-.06a3.59,3.59,0,0,1,1.22.08l.21.08a.51.51,0,0,1,.18.08.08.08,0,0,0,.06,0,3.6,3.6,0,0,1,.64.49,2.71,2.71,0,0,1,.38.43.76.76,0,0,0,.09.15,4.84,4.84,0,0,1,.63,1.69,2.63,2.63,0,0,0,.07.36,1.69,1.69,0,0,1,0,.28c0,.15,0,.29,0,.33S719,581.23,719,581.38Z" fill="#1d0a3f"/><path d="M711.25,593.6a3.24,3.24,0,0,1,0,.76,1.57,1.57,0,0,0,0,.16,4.31,4.31,0,0,1-.23,1,6.49,6.49,0,0,1-.56,1.22,1,1,0,0,0-.09.17.05.05,0,0,1,0,0s-.07.07-.12.15a7.46,7.46,0,0,1-.51.64l-.18.2-.09.09a.86.86,0,0,0-.22.16l-.38.31-.23.17a.05.05,0,0,1,0,0l-.19.1a5.28,5.28,0,0,1-1.42.59,4.43,4.43,0,0,1-1.28.15,3.7,3.7,0,0,1-1.24-.19,5,5,0,0,1-1-.37l-.35-.21c-.2-.11-.25-.14-.26-.16s-1.18-.6-1.38-.68l-.21-.09s-.05,0-.09,0l-.23-.09-.43-.15-.35-.11a3.47,3.47,0,0,0-.55-.16l-.3-.07A10.6,10.6,0,0,0,698,597l-.24,0a15.43,15.43,0,0,0-2.8,0,5.34,5.34,0,0,1-1.94-.1,5.57,5.57,0,0,1-.89-.37,2.42,2.42,0,0,0-.33-.2s-.05,0-.09-.08-.07-.09-.1-.09a4.14,4.14,0,0,1-.76-.72,1.79,1.79,0,0,0-.2-.22s0,0,0,0a1.43,1.43,0,0,0-.12-.21c-.07-.1-.14-.24-.18-.3a.27.27,0,0,0-.07-.12s0,0,0,0a1.28,1.28,0,0,0-.09-.25.83.83,0,0,0-.07-.14l0-.1a1,1,0,0,0,0-.11l0,0s0-.15-.08-.29a4.65,4.65,0,0,1-.15-1.18,4.83,4.83,0,0,1,.13-1.35,5.14,5.14,0,0,1,.64-1.63.88.88,0,0,0,.1-.19s0,0,0,0a3.43,3.43,0,0,0,.36-.47s0,0,.08-.06.59-.45.7-.56l.47-.39c.07-.06.14-.12.14-.14a0,0,0,0,1,0,0s.12-.07.31-.25l.13-.11s.06,0,.11-.09l.11-.11a9.62,9.62,0,0,0,.74-.66l.41-.38c.25-.23.36-.35.36-.38s0,0,0,0,.14-.09.14-.13,0,0,.06,0a.29.29,0,0,0,.1-.09s0-.06,0,0a1.83,1.83,0,0,0,.38-.4s0,0,0,0,.17-.13.21-.22,0-.06.07-.06a.7.7,0,0,0,.14-.15,1.35,1.35,0,0,1,.25-.27,1.91,1.91,0,0,0,.33-.36,0,0,0,0,1,0,0s.89-1,1.06-1.19l.22-.27a1.19,1.19,0,0,0,.16-.21,1.73,1.73,0,0,1,.2-.25l.21-.24.13-.15a.36.36,0,0,0,.09-.15s0,0,0-.05a6.51,6.51,0,0,0,.61-.8l.06-.08a5.55,5.55,0,0,0,.46-.58,1,1,0,0,1,.23-.19,4.46,4.46,0,0,1,1.51-.64l.29-.06a3.57,3.57,0,0,1,.46,0,.94.94,0,0,0,.25,0h0l.19,0a1.59,1.59,0,0,1,.26,0,.71.71,0,0,0,.21,0c.07,0,.13,0,.13,0s.07,0,.12,0a3.33,3.33,0,0,1,1.18.55l.12.08a3.61,3.61,0,0,1,.66.57l.08.09a1,1,0,0,1,.15.19,1.43,1.43,0,0,0,.15.18.3.3,0,0,1,.07.09,2.2,2.2,0,0,0,.16.28c.08.16.18.34.22.41a.69.69,0,0,0,.09.16l.1.2a.66.66,0,0,0,.1.17.24.24,0,0,1,.06.11l.11.19c.13.22.22.39.37.69s.21.4.25.43,0,0,0,0,0,0,0,0,.24.43.4.76c.06.12.14.3.19.39l.73,1.45c.14.31.3.64.31.68l0,.09a.78.78,0,0,1,0,.09l.15.32.16.35c.1.24.34.77.48,1.08a1.19,1.19,0,0,1,.1.24.41.41,0,0,0,0,.08s.09.2.17.38.15.36.17.39.09.22.16.42.15.37.17.4.47,1.17.49,1.28a1,1,0,0,0,0,.12s0,.07,0,.1a2.09,2.09,0,0,0,0,.28A5.08,5.08,0,0,1,711.25,593.6Z" fill="#1d0a3f"/><path d="M866.45,570.38a4.41,4.41,0,0,1-.07.54.64.64,0,0,0,0,.15c0,.06-.09.5-.13.65l-.09.29c0,.09,0,.19-.06.22a1.16,1.16,0,0,0-.06.15l-.08.21-.13.3a3.38,3.38,0,0,1-.29.55,2.77,2.77,0,0,1-.32.49l-.11.13a4.15,4.15,0,0,1-.88.84l-.11.07a.18.18,0,0,1-.08,0l-.12.07-.08,0a7.06,7.06,0,0,1-.8.28,6.47,6.47,0,0,1-.65.07,4.8,4.8,0,0,1-1-.21l-.31-.15a2.68,2.68,0,0,1-.56-.32l-.13-.09a2.66,2.66,0,0,1-.4-.34,9.09,9.09,0,0,1-.77-.94,7.77,7.77,0,0,1-.61-1.16,11,11,0,0,1-.43-1.34c0-.07,0-.27-.07-.45a8.36,8.36,0,0,1-.06-2.59c0-.1,0-.27,0-.39l.05-.29a1.17,1.17,0,0,0,0-.2c0-.06.09-.34.18-.61a5.75,5.75,0,0,1,1.09-2,3.21,3.21,0,0,1,.25-.28c.2-.18.26-.23.28-.23l0,0a2.73,2.73,0,0,1,.58-.39,3.08,3.08,0,0,1,1.27-.36,2,2,0,0,1,.72,0l.33.07.17,0,0,0a2.6,2.6,0,0,1,.58.27l0,0a4.79,4.79,0,0,1,.74.55,6.46,6.46,0,0,1,.65.75.58.58,0,0,0,.1.13.07.07,0,0,1,0,0,.24.24,0,0,0,.06.11,9.11,9.11,0,0,1,.61,1.21,10.38,10.38,0,0,1,.54,2.26C866.46,568.84,866.47,570.11,866.45,570.38Z" fill="#1d0a3f"/><path d="M875.93,571.06c0,.12-.08.37-.13.56s-.08.35-.09.37a.83.83,0,0,0-.07.21,5.37,5.37,0,0,1-.21.59l-.09.21a6.25,6.25,0,0,1-.56,1.1l-.19.31-.23.33-.27.37a7.52,7.52,0,0,1-1,1l-.16.15s0,0,0,0a.16.16,0,0,0-.09,0,6.93,6.93,0,0,1-.6.4,4,4,0,0,1-2.44.54l-.3-.06a3.24,3.24,0,0,1-.8-.32.43.43,0,0,0-.11-.08,5.72,5.72,0,0,1-.78-.73.18.18,0,0,0-.05-.07,1.93,1.93,0,0,1-.23-.35,1.51,1.51,0,0,0-.09-.16.46.46,0,0,1-.07-.14,2.35,2.35,0,0,0-.11-.24,5.66,5.66,0,0,1-.35-1.39l0-.29c0-.17,0-1.07,0-1.22s0-.17,0-.28a2.88,2.88,0,0,1,.05-.33c0-.08,0-.19,0-.25a2,2,0,0,1,.11-.49.76.76,0,0,0,.06-.18,9.4,9.4,0,0,1,.71-1.83l.11-.2c.07-.14.15-.27.28-.48a1.43,1.43,0,0,0,.13-.2.47.47,0,0,1,.06-.09l.28-.36a8.75,8.75,0,0,1,1-1.06l.18-.15.16-.13.19-.13a5.85,5.85,0,0,1,1.3-.65,3,3,0,0,1,.84-.18,3.77,3.77,0,0,1,.46,0,2.79,2.79,0,0,1,.64.11l.09,0,.11,0a1.19,1.19,0,0,0,.28.11l.13.07s.1.07.1.06l.07,0a.45.45,0,0,0,.14.1,4.83,4.83,0,0,1,.8.82,5.09,5.09,0,0,1,.7,1.73l0,.21a3.68,3.68,0,0,1,.07.93A6.67,6.67,0,0,1,875.93,571.06Z" fill="#1d0a3f"/><path d="M858.24,577.34c0,.3-.22,1.17-.25,1.23a2,2,0,0,0-.11.29c0,.14-.08.27-.09.29l-.06.14a1,1,0,0,1-.1.21l0,.14s0,0,0,0a.73.73,0,0,0-.08.16,3.19,3.19,0,0,1-.19.35,1,1,0,0,0-.15.22l0,0a1.31,1.31,0,0,0-.13.17,5,5,0,0,1-.57.64.34.34,0,0,0-.12.13s0,.05,0,0a.7.7,0,0,0-.22.13,3.66,3.66,0,0,1-1.37.62,3.51,3.51,0,0,1-1.26,0l-.24-.07L853,582l-.16-.06-.14-.07a.38.38,0,0,0-.15-.07s0,0,0,0l0,0a.31.31,0,0,1-.12-.07l-.11-.07-.08-.06a3.34,3.34,0,0,1-.29-.23,6.18,6.18,0,0,1-.85-.91l-.17-.22a.12.12,0,0,1-.05-.08,1.07,1.07,0,0,0-.12-.21,4.83,4.83,0,0,1-.42-.84,2.4,2.4,0,0,1-.23-.59c0-.05,0-.1,0-.1s0,0,0,0,0-.17-.08-.34a8.14,8.14,0,0,1-.33-2.42,7,7,0,0,1,.06-1s0-.14,0-.23.21-1,.27-1.22a7.61,7.61,0,0,1,.55-1.34l.09-.16a.21.21,0,0,1,.06-.09s0-.09,0-.09,0-.05.08-.12l.1-.14a.44.44,0,0,1,.11-.14.64.64,0,0,0,.11-.13.64.64,0,0,1,.11-.13,1.35,1.35,0,0,0,.16-.19l.09-.08a.37.37,0,0,0,.11-.1l.14-.12.3-.2.29-.19.08,0a3,3,0,0,1,.93-.3,0,0,0,0,0,0,0,6.56,6.56,0,0,1,1,0,3.29,3.29,0,0,1,.95.32l.33.18,0,0,0,0s.07.07.16.13a5,5,0,0,1,.86.81l.15.18a3,3,0,0,1,.24.34,1,1,0,0,1,.15.24.07.07,0,0,0,.05.06s0,0,0,0,0,0,0,.08.19.36.29.59l.11.26a9.22,9.22,0,0,1,.58,2.18A10,10,0,0,1,858.24,577.34Z" fill="#1d0a3f"/><path d="M881.46,579.27c0,.05,0,.17,0,.27a12.2,12.2,0,0,1-.45,2.22.37.37,0,0,0,0,.14s0,.07,0,.07,0,0,0,.07,0,.07,0,.08a.11.11,0,0,0,0,.07,7.2,7.2,0,0,1-.46,1.11.13.13,0,0,0,0,.07.57.57,0,0,1-.1.19c-.05.09-.08.16-.07.16s0,0,0,0a.23.23,0,0,0-.06.09c-.05.09-.11.2-.25.42a.82.82,0,0,0-.12.23.07.07,0,0,1,0,.06.66.66,0,0,0-.18.23s0,.05-.07.1a1.08,1.08,0,0,0-.16.2c-.09.12-.34.4-.58.66a.77.77,0,0,0-.16.19l0,0a5.89,5.89,0,0,0-.61.5.06.06,0,0,1,0,0l-.16.09-.29.17-.17.09-.18.09a3.34,3.34,0,0,1-1.48.35,1.87,1.87,0,0,1-.83-.13l-.17,0a3.19,3.19,0,0,1-.61-.36,3.79,3.79,0,0,1-1.23-1.86,3.75,3.75,0,0,0-.13-.4s0-.14,0-.21l0-.16,0-.23a9.75,9.75,0,0,1,0-2.3,11.34,11.34,0,0,1,.29-1.46,3.12,3.12,0,0,1,.22-.68,1.33,1.33,0,0,0,0-.19s0-.1,0-.1a0,0,0,0,0,0,0,3.76,3.76,0,0,1,.29-.71,2.24,2.24,0,0,0,.15-.34.42.42,0,0,1,.07-.13,2,2,0,0,0,.17-.31,1.12,1.12,0,0,1,.14-.24,5.37,5.37,0,0,0,.35-.54s0,0,0,0a1.33,1.33,0,0,0,.24-.3,1.37,1.37,0,0,1,.15-.18.67.67,0,0,0,.12-.17s0,0,0,0A1,1,0,0,0,875,576a5.61,5.61,0,0,1,.51-.51l.19-.15.21-.16s0,0,0,0a0,0,0,0,1,0,0l.24-.14a4.58,4.58,0,0,1,1.43-.64l.28-.06a3.4,3.4,0,0,1,1.23.09l.21.07a.49.49,0,0,1,.17.09.07.07,0,0,0,.06,0,3.27,3.27,0,0,1,.64.49,2.71,2.71,0,0,1,.38.43.76.76,0,0,0,.09.15,4.72,4.72,0,0,1,.63,1.69c0,.19.07.35.08.37l0,.27a3.12,3.12,0,0,0,0,.33A9,9,0,0,1,881.46,579.27Z" fill="#1d0a3f"/><path d="M873.68,591.48a3.16,3.16,0,0,1,0,.76s0,.1,0,.16a5.45,5.45,0,0,1-.24,1,6,6,0,0,1-.55,1.21.9.9,0,0,0-.1.18s0,0,0,0a.58.58,0,0,0-.12.15,7.46,7.46,0,0,1-.51.64,2.61,2.61,0,0,0-.17.2.32.32,0,0,1-.1.09,1,1,0,0,0-.21.17l-.38.3-.23.17-.05,0-.19.11a5.53,5.53,0,0,1-1.41.58,4.49,4.49,0,0,1-1.29.15,3.86,3.86,0,0,1-1.23-.18,5.79,5.79,0,0,1-1-.38,2.24,2.24,0,0,0-.35-.21,1.34,1.34,0,0,1-.26-.16s-1.18-.6-1.38-.68l-.21-.09-.09,0-.22-.09-.44-.15-.35-.11a5.52,5.52,0,0,0-.54-.16l-.31-.07a10.6,10.6,0,0,0-1.24-.21l-.24,0a16.39,16.39,0,0,0-2.8,0,5.27,5.27,0,0,1-1.93-.1,5.2,5.2,0,0,1-.89-.37,2.49,2.49,0,0,0-.34-.2.18.18,0,0,1-.08-.08c0-.05-.08-.08-.1-.08a3.7,3.7,0,0,1-.76-.73,1.09,1.09,0,0,0-.21-.22s0,0,0,0a.83.83,0,0,0-.12-.21l-.17-.29a.49.49,0,0,0-.08-.13l0,0a.8.8,0,0,0-.09-.25l-.06-.14s0-.05,0-.1a.66.66,0,0,0,0-.11.11.11,0,0,1,0,0s0-.15-.08-.28a4.89,4.89,0,0,1-.14-1.19,4.82,4.82,0,0,1,.12-1.35,5.49,5.49,0,0,1,.64-1.63.57.57,0,0,0,.1-.19s0,0,0,0a2.91,2.91,0,0,0,.36-.47s0,0,.08-.06.59-.45.7-.56.33-.28.47-.38.14-.13.14-.15l0,0s.11-.07.31-.26l.13-.11a.32.32,0,0,0,.1-.09l.11-.1s.35-.3.75-.67l.4-.38c.25-.23.37-.35.37-.38l0,0s.14-.09.14-.13,0,0,.06,0a.29.29,0,0,0,.1-.09s0-.06,0,0a1.86,1.86,0,0,0,.39-.4,0,0,0,0,1,0,0s.17-.13.22-.22,0-.06.06-.06.09-.07.15-.15.22-.27.25-.27a1.59,1.59,0,0,0,.32-.36l0,0s.89-1,1.06-1.18c0,0,.13-.17.22-.28a1.6,1.6,0,0,0,.17-.21l.19-.24.22-.25.12-.15c.06-.07.1-.13.09-.14s0,0,0-.05a5.81,5.81,0,0,0,.62-.81l.06-.08a6.09,6.09,0,0,0,.45-.58,1.15,1.15,0,0,1,.24-.19,4.41,4.41,0,0,1,1.5-.64l.3-.06a3.42,3.42,0,0,1,.45,0,.94.94,0,0,0,.25,0h0l.18,0,.26,0a.73.73,0,0,0,.22,0c.06,0,.12,0,.13,0l.12,0a3.5,3.5,0,0,1,1.18.55l.12.08a3.61,3.61,0,0,1,.66.57.3.3,0,0,0,.07.09l.16.19a1.41,1.41,0,0,0,.14.18l.07.09a2.81,2.81,0,0,0,.16.29c.09.15.19.33.22.4a1.52,1.52,0,0,1,.09.17,1.43,1.43,0,0,1,.1.19,1.24,1.24,0,0,0,.1.17l.07.11a1.74,1.74,0,0,0,.1.19c.13.22.23.39.38.69s.2.41.24.43,0,0,0,0,0,0,0,0,.23.42.39.75l.2.39c.09.18.45.9.72,1.46.15.3.31.64.32.67l0,.09,0,.1.14.31c.08.16.15.32.17.35.1.24.34.78.48,1.08l.1.24a.13.13,0,0,0,0,.08s.09.2.16.38.16.36.17.4.09.21.17.41.15.37.16.4.47,1.17.49,1.28a.83.83,0,0,0,0,.12.3.3,0,0,1,0,.1s0,.15.05.28A5.08,5.08,0,0,1,873.68,591.48Z" fill="#1d0a3f"/><path d="M76.65,627.48a107,107,0,0,1-1.12,15.75,46.07,46.07,0,0,1-4.45,14.14,34.82,34.82,0,0,1-10,11.76,26,26,0,0,1-7.73,4.06,51.55,51.55,0,0,1-9.21,2.24,58.29,58.29,0,0,1-8.61.7q-6,0-11.58-.07t-11.27-.21L1,675.57l-1-.91V580.44l1-.91q6-.21,11.66-.35t11.3-.17c3.78,0,7.65,0,11.62,0a60.43,60.43,0,0,1,8.65.7,53.2,53.2,0,0,1,9.24,2.24A25.18,25.18,0,0,1,61.11,586,35.39,35.39,0,0,1,71,597.73a47,47,0,0,1,4.48,14.11A103,103,0,0,1,76.65,627.48Zm-21.91,0a94.52,94.52,0,0,0-.66-11.06,38.87,38.87,0,0,0-2.63-10.32,17.93,17.93,0,0,0-5.77-7.6q-3.82-2.87-10.12-2.87-3.64,0-7,0t-7.28-.11v64c2.61,0,5-.07,7.28-.07h7q6.3,0,10.12-2.9a18.14,18.14,0,0,0,5.77-7.63,38.87,38.87,0,0,0,2.63-10.36A95.45,95.45,0,0,0,54.74,627.48Z" fill="#f1ba52"/><path d="M150.64,640.5A48.15,48.15,0,0,1,147,659.93a28.51,28.51,0,0,1-10.78,12.88q-7.14,4.58-17.64,4.58t-17.64-4.62a28.51,28.51,0,0,1-10.75-12.91,53.93,53.93,0,0,1,0-38.85A28.51,28.51,0,0,1,101,608.13q7.14-4.59,17.57-4.59t17.71,4.62A28.46,28.46,0,0,1,147,621.08,48.28,48.28,0,0,1,150.64,640.5Zm-42.63,0a67.52,67.52,0,0,0,.77,10.71,16.36,16.36,0,0,0,3,7.7c1.52,1.92,3.8,2.87,6.83,2.87s5.3-.95,6.79-2.87a16.56,16.56,0,0,0,3-7.7,75.08,75.08,0,0,0,0-21.45,16.68,16.68,0,0,0-3-7.74c-1.49-1.91-3.76-2.87-6.79-2.87s-5.31,1-6.83,2.87a16.48,16.48,0,0,0-3,7.74A68.1,68.1,0,0,0,108,640.5Z" fill="#f1ba52"/><path d="M159.81,640.64q0-12.1,3.85-20.37a29.39,29.39,0,0,1,10.22-12.49,24.56,24.56,0,0,1,13.86-4.24,27.67,27.67,0,0,1,11.48,2.17,26.94,26.94,0,0,1,7.94,5.36,31.79,31.79,0,0,1,5,6.26l-3.36,17.08a38.21,38.21,0,0,0-8.75-11.3q-4.77-4-8.75-4a7.34,7.34,0,0,0-5.71,2.56,16.46,16.46,0,0,0-3.36,7.38,54,54,0,0,0-1.08,11.62q0,10.15,2.55,14.67t6.34,4.51a14.57,14.57,0,0,0,8.57-3,22.08,22.08,0,0,0,6.9-8.65l3,14.7a26.33,26.33,0,0,1-5.88,6.93,30.32,30.32,0,0,1-8.19,4.94,25.31,25.31,0,0,1-9.59,1.85q-8.48,0-14-4.58a27.21,27.21,0,0,1-8.29-12.71A58.8,58.8,0,0,1,159.81,640.64Zm65.66-25.48a8.72,8.72,0,0,0-2.87,4.2,18.47,18.47,0,0,0-1,6.37v37.52a117,117,0,0,1-.88,15.86,44.34,44.34,0,0,1-2.48,10.25,28.32,28.32,0,0,1-3.78,6.79,24.32,24.32,0,0,1-10.78,7.63,42.61,42.61,0,0,1-15,2.52A75.48,75.48,0,0,1,175,705a68.9,68.9,0,0,1-12.42-3.4,25.86,25.86,0,0,1,1.47-8.12,20.46,20.46,0,0,1,3.71-7,54.08,54.08,0,0,0,9.41,3.12,41.59,41.59,0,0,0,9.49,1.15,16.73,16.73,0,0,0,8.57-1.89,10.81,10.81,0,0,0,4.59-5.25,20.14,20.14,0,0,0,1.4-7.77V625.17a23.45,23.45,0,0,1,4.44-14.42q4.45-5.94,13.34-6.3a18.2,18.2,0,0,1,4.06,4.73A15.7,15.7,0,0,1,225.47,615.16Z" fill="#f1ba52"/><path d="M247.8,647.22V632.8h27.51v-1.61a19.75,19.75,0,0,0-1-6.37,10,10,0,0,0-3.15-4.62,8.91,8.91,0,0,0-5.74-1.75q-5.4,0-7.67,4.45t-2.27,13.4v6.3a44.41,44.41,0,0,0,.91,9.31,12.68,12.68,0,0,0,3.74,6.9q2.84,2.63,8.58,2.62a35.06,35.06,0,0,0,9.41-1.29,70.15,70.15,0,0,0,8.93-3.12,17.17,17.17,0,0,1,3.71,5.81,31.48,31.48,0,0,1,1.89,6.58,38.91,38.91,0,0,1-12.57,5.92,54.22,54.22,0,0,1-14.73,2.06q-9.11,0-15.09-3a24.39,24.39,0,0,1-9.45-8.23,34,34,0,0,1-4.9-11.69,63,63,0,0,1-1.43-13.51,52.88,52.88,0,0,1,3.22-19,28.89,28.89,0,0,1,10-13.41q6.83-5,17.75-5,9.24,0,15.71,3.92a26.11,26.11,0,0,1,9.91,10.64,33,33,0,0,1,3.43,15.19,59.75,59.75,0,0,1-.39,7.49,43,43,0,0,1-1.36,6.44Z" fill="#f1ba52"/><path d="M362.8,579.74q2.59-.35,6.16-.56t6.23-.21q2.6,0,6.2.21a48.23,48.23,0,0,1,6.12.7L417.82,674a19.07,19.07,0,0,1-5.74,1.93,35.51,35.51,0,0,1-6.58.66c-3.36,0-6-.78-7.91-2.34s-3.52-4.63-4.83-9.21l-10.71-37.31q-1.68-5.94-3.81-13.72t-3.82-14.56h-.84q-1.05,5.67-3,13t-3.61,12.77L352,675.5a22.82,22.82,0,0,1-4.27.63c-1.54.1-3.12.14-4.76.14a46.27,46.27,0,0,1-5.46-.35,21.34,21.34,0,0,1-4.9-1l-.77-1.12Zm1.26,75.18-2.38,0-2.76-.07c-.91,0-1.69,0-2.35,0H345.44L352,638.05h9.73l2.31,0,2.66-.07c.89,0,1.64,0,2.24,0h10.71c.66,0,1.43,0,2.31,0l2.66.07,2.31,0H397l5.39,16.73H391.36c-.65,0-1.44,0-2.38,0l-2.76.07-2.35,0Z" fill="#1d0a3f"/><path d="M422.16,670.53a22.66,22.66,0,0,1,1.86-7.59,19.89,19.89,0,0,1,4.09-6.55,71.61,71.61,0,0,0,9.52,4.13,29.54,29.54,0,0,0,9.87,1.75q4.28,0,6.51-1.54a4.58,4.58,0,0,0,2.24-3.92,5.35,5.35,0,0,0-1.57-3.81,13.14,13.14,0,0,0-5.08-2.91l-7.84-2.87a40.86,40.86,0,0,1-8.89-4.55,20.89,20.89,0,0,1-6.33-6.72,18.52,18.52,0,0,1-2.35-9.59,20.94,20.94,0,0,1,12.71-20,33.38,33.38,0,0,1,14.1-2.8,56.8,56.8,0,0,1,13.65,1.79,57.56,57.56,0,0,1,11.69,4,19.74,19.74,0,0,1-1.5,8.12,14,14,0,0,1-4.24,6.37,92.58,92.58,0,0,0-9.34-3.5,33.22,33.22,0,0,0-10.05-1.61,7.11,7.11,0,0,0-4.76,1.44,4.47,4.47,0,0,0-1.68,3.53,4.35,4.35,0,0,0,1.4,3.29,13,13,0,0,0,4.48,2.45l8.61,3.15a34.61,34.61,0,0,1,13.27,8.12q5.28,5.32,5.28,14.14a19.65,19.65,0,0,1-7.94,16.45q-8,6.09-21.95,6.09a48.44,48.44,0,0,1-14.14-2A55.89,55.89,0,0,1,422.16,670.53Z" fill="#1d0a3f"/><path d="M484.11,670.53a22.66,22.66,0,0,1,1.86-7.59,19.72,19.72,0,0,1,4.09-6.55,71,71,0,0,0,9.52,4.13,29.46,29.46,0,0,0,9.87,1.75q4.27,0,6.51-1.54a4.58,4.58,0,0,0,2.24-3.92,5.35,5.35,0,0,0-1.57-3.81,13.21,13.21,0,0,0-5.08-2.91l-7.84-2.87a40.86,40.86,0,0,1-8.89-4.55,20.89,20.89,0,0,1-6.33-6.72,18.52,18.52,0,0,1-2.35-9.59,20.94,20.94,0,0,1,12.71-20,33.34,33.34,0,0,1,14.1-2.8,56.87,56.87,0,0,1,13.65,1.79,57.78,57.78,0,0,1,11.69,4,19.74,19.74,0,0,1-1.5,8.12,14,14,0,0,1-4.24,6.37,92.58,92.58,0,0,0-9.34-3.5,33.26,33.26,0,0,0-10.05-1.61,7.11,7.11,0,0,0-4.76,1.44,4.47,4.47,0,0,0-1.68,3.53,4.35,4.35,0,0,0,1.4,3.29,12.89,12.89,0,0,0,4.48,2.45l8.61,3.15a34.61,34.61,0,0,1,13.27,8.12q5.28,5.32,5.28,14.14a19.65,19.65,0,0,1-7.94,16.45q-8,6.09-22,6.09a48.39,48.39,0,0,1-14.14-2A55.89,55.89,0,0,1,484.11,670.53Z" fill="#1d0a3f"/><path d="M660,636a55.39,55.39,0,0,0-.52-9.1,10.83,10.83,0,0,0-2.49-5.81q-1.89-2-5.74-2-5.12,0-7.25,5.18t-2.13,16.45q0,11.28,3.25,15.82a10.85,10.85,0,0,0,9.42,4.55,19.45,19.45,0,0,0,8.23-1.85,46.28,46.28,0,0,0,7.38-4.24,15.61,15.61,0,0,1,4.87,5,20.72,20.72,0,0,1,3,6.72,33.29,33.29,0,0,1-11.9,7.74,40.2,40.2,0,0,1-15,2.9,31.7,31.7,0,0,1-13.3-2.62,25.42,25.42,0,0,1-9.56-7.49,34,34,0,0,1-5.77-11.62,53.42,53.42,0,0,1-2-14.95q0-13.5,4.59-21.66a28.43,28.43,0,0,1,11.72-11.83,31.89,31.89,0,0,1,14.77-3.68,33.35,33.35,0,0,1,10.92,1.72,26.16,26.16,0,0,1,8.57,4.79,21.12,21.12,0,0,1,7.53,16.45q0,5.25-2.87,7.77a10.83,10.83,0,0,1-7.42,2.52,42.06,42.06,0,0,1-4.51-.21C662.62,636.44,661.33,636.26,660,636Z" fill="#1d0a3f"/><path d="M716.58,675.36a63.14,63.14,0,0,1-10.43.77,64.7,64.7,0,0,1-10.43-.77v-47a10.46,10.46,0,0,0-1.44-5.74c-.95-1.49-2.67-2.24-5.14-2.24h-2a27.25,27.25,0,0,1-.91-7.07,35.89,35.89,0,0,1,.21-3.74,24.35,24.35,0,0,1,.7-3.82q3.08-.35,6.33-.52t5.43-.18h2.94a13.78,13.78,0,0,1,10.71,4.38q4,4.38,4,11.79Z" fill="#1d0a3f"/><path d="M729.6,656.25q0-8.32,3.88-13.68a23,23,0,0,1,10.19-7.91,35.66,35.66,0,0,1,13.51-2.56q3.29,0,8.12.18a55.45,55.45,0,0,1,8.68.94v13.3a41.92,41.92,0,0,0-7.42-.84c-2.85-.09-5.27-.14-7.28-.14-3.27,0-5.65.87-7.14,2.59a9.93,9.93,0,0,0-2.24,6.72,7.23,7.23,0,0,0,1.82,5,6.39,6.39,0,0,0,5,2,15.82,15.82,0,0,0,8.89-3.08,24.63,24.63,0,0,0,7.63-8.61l2.94,13.51a61.22,61.22,0,0,1-6.27,6.34,32,32,0,0,1-8.22,5.21,26.53,26.53,0,0,1-10.92,2.1q-7.21,0-11.9-3.18a20,20,0,0,1-7-8.05A22.88,22.88,0,0,1,729.6,656.25Zm62.79,9.52a20.2,20.2,0,0,1-2.56,6,16.61,16.61,0,0,1-4,4.72,17.81,17.81,0,0,1-9.77-2.87,18.35,18.35,0,0,1-5.84-6.47,23.44,23.44,0,0,1-2.59-7.53v-30.1q0-4.75-2.35-7.07t-7.17-2.31a38.59,38.59,0,0,0-10,1.44q-5.35,1.44-10.81,3.11a18.12,18.12,0,0,1-3.54-6.58,36.93,36.93,0,0,1-1.64-7.91,75.81,75.81,0,0,1,10.25-3.29,110.13,110.13,0,0,1,11.24-2.17,75.55,75.55,0,0,1,10.15-.77,30.94,30.94,0,0,1,11.86,2.31,20.3,20.3,0,0,1,9.21,7.53q3.57,5.22,3.57,14v28.49a15.3,15.3,0,0,0,.91,5.57A9.06,9.06,0,0,0,792.39,665.77Z" fill="#1d0a3f"/><path d="M844.4,605.43a30.68,30.68,0,0,1,.91,7.35,30.35,30.35,0,0,1-.91,7.56l-25.69-.42-22.26.42a30.35,30.35,0,0,1-.91-7.56,30.68,30.68,0,0,1,.91-7.35l22.82.42Zm-37.1-8.33q0-7,2.59-9.8c1.73-1.86,4.64-2.8,8.75-2.8h8.12l.91.91v68.18a7.24,7.24,0,0,0,1.44,4.8c.95,1.14,2.53,1.71,4.72,1.71H842a31.35,31.35,0,0,1,1.61,9.94c0,.75,0,1.54-.07,2.38a9.12,9.12,0,0,1-.42,2.31q-3.78.49-8.68.91t-9.1.42q-9.16,0-13.58-4.58T807.3,657.3Z" fill="#1d0a3f"/><path d="M880.66,675.36a63.14,63.14,0,0,1-10.43.77,64.7,64.7,0,0,1-10.43-.77v-47a10.46,10.46,0,0,0-1.44-5.74c-1-1.49-2.67-2.24-5.14-2.24h-2a27.25,27.25,0,0,1-.91-7.07,35.89,35.89,0,0,1,.21-3.74,24.35,24.35,0,0,1,.7-3.82q3.07-.35,6.33-.52T863,605H866a13.78,13.78,0,0,1,10.71,4.38q4,4.38,4,11.79Z" fill="#1d0a3f"/><path d="M957.73,640.5a48.15,48.15,0,0,1-3.64,19.43,28.51,28.51,0,0,1-10.78,12.88q-7.14,4.58-17.64,4.58T908,672.77a28.51,28.51,0,0,1-10.75-12.91,53.93,53.93,0,0,1,0-38.85,28.45,28.45,0,0,1,10.78-12.88q7.14-4.59,17.57-4.59t17.71,4.62a28.46,28.46,0,0,1,10.74,12.92A48.28,48.28,0,0,1,957.73,640.5Zm-42.63,0a67.52,67.52,0,0,0,.77,10.71,16.36,16.36,0,0,0,3,7.7c1.52,1.92,3.79,2.87,6.83,2.87s5.29-.95,6.79-2.87a16.67,16.67,0,0,0,3-7.7,75.08,75.08,0,0,0,0-21.45,16.79,16.79,0,0,0-3-7.74q-2.25-2.87-6.79-2.87c-3,0-5.31,1-6.83,2.87a16.48,16.48,0,0,0-3,7.74A68.1,68.1,0,0,0,915.1,640.5Z" fill="#1d0a3f"/><path d="M614.07,640.5a48.15,48.15,0,0,1-3.64,19.43,28.51,28.51,0,0,1-10.78,12.88q-7.14,4.58-17.64,4.58t-17.64-4.62a28.45,28.45,0,0,1-10.75-12.91,53.93,53.93,0,0,1,0-38.85,28.45,28.45,0,0,1,10.78-12.88q7.14-4.59,17.57-4.59t17.71,4.62a28.46,28.46,0,0,1,10.74,12.92A48.45,48.45,0,0,1,614.07,640.5Zm-42.63,0a67.52,67.52,0,0,0,.77,10.71,16.26,16.26,0,0,0,3,7.7c1.52,1.92,3.79,2.87,6.83,2.87s5.29-.95,6.79-2.87a16.67,16.67,0,0,0,3-7.7,75.08,75.08,0,0,0,0-21.45,16.79,16.79,0,0,0-3-7.74q-2.25-2.87-6.79-2.87c-3,0-5.31,1-6.83,2.87a16.37,16.37,0,0,0-3,7.74A68.1,68.1,0,0,0,571.44,640.5Z" fill="#1d0a3f"/><path d="M979.78,604.66q6,0,9,4.06t3,11.06v55.58a63.14,63.14,0,0,1-10.43.77,66,66,0,0,1-10.5-.77V605.64l1-1Zm50.61,53.55a35.27,35.27,0,0,0,.77,7.6,17.15,17.15,0,0,0,2.59,6.19,19.9,19.9,0,0,1-5.71,3.15,20.83,20.83,0,0,1-7.31,1.26q-6.3,0-8.75-3.32t-2.45-9.56V632.87c0-3.36-.45-5.83-1.33-7.42s-2.57-2.38-5-2.38a14.63,14.63,0,0,0-5.36,1.23,19.62,19.62,0,0,0-5.95,3.92,24,24,0,0,0-5.07,7.1V616.91a67,67,0,0,1,10.81-8.75,24,24,0,0,1,13.34-3.85,17.77,17.77,0,0,1,10.78,3.19,19.26,19.26,0,0,1,6.51,8.71,34.88,34.88,0,0,1,2.17,12.74Z" fill="#1d0a3f"/><path d="M670.69,175.07c-4.21,13.19-7.3,27.06-13.42,39.21-5.39,10.7-12.88,21.39-21.94,28.64-22.83,18.26-49.16,21.74-76.79,14-13.45-3.8-25.75-2.63-37.1,8.57l25-5.07c-.61,6.17-1.36,10.06-1.32,13.94.24,25.48-1.25,51.19,1.57,76.36,2.63,23.43,10.67,46.13,14.77,69.46,1.6,9.11,1.31,20.16-2.2,28.41C554,461.07,542.24,479,528.43,497.07a415.37,415.37,0,0,1-62,4.4H322.72q-20.75,0-29.32-8.93t-8.58-29V284.62c12.12-6.06,24.14-12.36,35.06-20.26A261.75,261.75,0,0,0,364.82,223c20.56-24,39-50.13,56.42-72.92L471,221.78c6.68,9.66,15.75,11.92,24.56,5.18,7.21-5.5,15.61-12.77,18-21,5-17.17,6.38-35.51,9.25-53.37-3.78,6.12-4.54,12.79-6.07,19.27-2.76,11.73-4.88,23.83-9.29,34.88-5.18,13-21.13,20.26-27.65,13.46-24.51-25.54-46.71-53.07-53.68-90-1.25-6.62.59-16.78,4.86-21.09,9.57-9.63,20.56-19.56,32.76-24.11,34.52-12.92,68.63-9.57,102,7.61,12.06,6.22,20.77,12.86,23.71,27.27,2.84,13.94,11.44,22.45,25.31,25.16,15.11,2.95,30.07,6.77,45.1,10.21C672.42,158.13,674.78,162.23,670.69,175.07Z" fill="#f1ba52"/></g></g></svg>