<svg xmlns="http://www.w3.org/2000/svg" viewBox="0 0 1080 1080"><defs><style>.cls-1{fill:#1d0a3f;}.cls-2{fill:#fff;}</style></defs><g id="Nuevo_logo_blanco_sin_letras" data-name="Nuevo logo blanco sin letras"><path class="cls-1" d="M1014.22,538.51q0,243.82-152.38,382.78Q748.5,1024.69,572.29,1051.14q-60.72,9.16-128.91,9.15H144.58q-43.14,0-61-18.57T65.78,981.48v-883q0-43.09,18.59-60.94t60.21-17.84H434.44q285.44,0,432.62,131.55T1014.22,538.51Z"/><path class="cls-2" d="M867.08,382.64c-8.76,27.42-15.18,56.26-27.91,81.52-11.2,22.25-26.78,44.48-45.62,59.55-47.46,38-102.21,45.2-159.66,29-28-7.9-53.53-5.47-77.13,17.81,17.84-3.61,33.62-6.79,52.08-10.54-1.27,12.83-2.83,20.92-2.74,29,.49,53-2.6,106.43,3.26,158.76,5.47,48.72,22.18,95.92,30.71,144.42,3.33,19,2.72,41.92-4.57,59.07-11.11,26.06-35.5,63.25-64.21,100.91q-60.72,9.16-128.91,9.15H143.58q-43.14,0-61-18.57T64.78,982.48V610.41c25.2-12.6,50.19-25.69,72.89-42.12a544,544,0,0,0,93.44-86.1c42.75-50,81-104.23,117.31-151.61,34.79,50.15,69.11,99.67,103.44,149.18,13.89,20.08,32.75,24.78,51.07,10.77,15-11.44,32.45-26.55,37.44-43.73,10.4-35.7,13.27-73.83,19.23-111-7.85,12.72-9.43,26.59-12.62,40.06-5.73,24.39-10.14,49.55-19.31,72.52-10.77,26.95-43.93,42.13-57.49,28-51-53.1-97.12-110.34-111.61-187.09-2.6-13.76,1.22-34.88,10.1-43.85,19.9-20,42.75-40.66,68.12-50.12,71.77-26.87,142.69-19.9,212,15.82,25.08,12.93,43.19,26.74,49.3,56.7,5.9,29,23.78,46.68,52.62,52.31,31.42,6.13,62.52,14.08,93.77,21.23C870.67,347.42,875.58,355.94,867.08,382.64Z"/></g></svg>